<?xml version="1.0" encoding="UTF-8"?>
<svg width="100pt" height="100pt" version="1.1" viewBox="0 0 100 100" xmlns="http://www.w3.org/2000/svg">
 <path d="m53.84 100h-7.6797c-2.3672-0.035156-4.4023-1.6875-4.9219-4l-1.2383-6.4805c-0.98047-4.0156-5.0234-6.4727-9.0391-5.4961-0.73438 0.17969-1.4336 0.46875-2.082 0.85547l-4.8789 3.7227c-2.0508 1.4414-4.8438 1.1875-6.6016-0.60156l-5.3984-5.3594c-1.8125-1.7617-2.0664-4.582-0.60156-6.6406l3.7188-5.1992c1.9727-3.6289 0.63281-8.1719-2.9961-10.145-0.51953-0.28125-1.0703-0.50391-1.6445-0.65625l-6.4766-1.1992c-2.3125-0.51953-3.9648-2.5508-4-4.9219v-7.7188c0.015625-2.3828 1.6758-4.4375 4-4.9609l6.4805-1.1992c4.0039-1.0234 6.418-5.0977 5.3945-9.1016-0.16797-0.65234-0.42188-1.2773-0.75391-1.8594l-3.7227-5.0391c-1.4648-2.0586-1.2109-4.8789 0.60156-6.6406l5.3984-5.3594c1.7578-1.7891 4.5508-2.043 6.6016-0.60156l5.1992 3.7188c3.6289 1.9727 8.1719 0.63281 10.145-2.9961 0.28125-0.51953 0.50391-1.0703 0.65625-1.6445l1.1992-6.4766c0.51953-2.3125 2.5508-3.9648 4.9219-4h7.7188c2.3828 0.015625 4.4375 1.6758 4.9609 4l1.1992 6.4805c0.64062 2.2734 2.25 4.1445 4.3984 5.1211 2.1992 0.86328 4.6797 0.67188 6.7188-0.51953l4.8828-3.6836c2.0508-1.4414 4.8438-1.1875 6.6016 0.60156l5.3984 5.3594c1.8125 1.7617 2.0664 4.582 0.60156 6.6406l-3.7188 5.1992c-1.9727 3.6289-0.63281 8.1719 2.9961 10.145 0.51953 0.28125 1.0703 0.50391 1.6445 0.65625l6.4766 1.1992c2.3125 0.51953 3.9648 2.5508 4 4.9219v7.7188c-0.035156 2.3672-1.6875 4.4023-4 4.9219l-6.4805 1.2383c-4.0156 0.98047-6.4727 5.0234-5.4961 9.0391 0.17969 0.73047 0.46875 1.4336 0.85547 2.082l3.7188 5.1992c1.2891 1.9922 1.0391 4.6055-0.60156 6.3203l-5.3945 5.3594c-1.7539 1.6758-4.4414 1.8945-6.4375 0.51953l-5.1992-3.7188c-3.5938-2.0391-8.1562-0.78516-10.199 2.8086-0.34375 0.60156-0.59766 1.2422-0.76172 1.9102l-1.2031 6.4805c-0.52344 2.3242-2.5781 3.9844-4.9609 4zm-21-20c5.3398-0.054688 9.9922 3.6289 11.16 8.8398l1.0391 6.3203c0.11719 0.46484 0.51953 0.80469 1 0.83984h7.7188c0.48047-0.035156 0.88281-0.375 1-0.83984l1.2422-6.2812c1.3086-6.1797 7.3789-10.133 13.562-8.8242 1.3672 0.28906 2.668 0.82422 3.8398 1.5859l5.1992 3.7188c0.38672 0.26953 0.89453 0.26953 1.2812 0l5.4414-5.4375c0.26953-0.38672 0.26953-0.89453 0-1.2773l-3.7227-5.207c-3.4453-5.293-1.9492-12.383 3.3438-15.828 1.1875-0.77344 2.5117-1.3203 3.8945-1.6094l6.3203-1.0391c0.46484-0.11719 0.80469-0.51953 0.83984-1v-7.8008c-0.035156-0.48047-0.375-0.88281-0.83984-1l-6.3203-1.1602c-6.1836-1.3086-10.133-7.3789-8.8203-13.562 0.28906-1.3672 0.82422-2.668 1.582-3.8398l3.7227-5.1992c0.26953-0.38281 0.26953-0.89453 0-1.2812l-5.5234-5.3555c-0.38281-0.26953-0.89453-0.26953-1.2812 0l-5.1992 3.7188c-5.3398 3.3828-12.406 1.7969-15.785-3.5391-0.73047-1.1562-1.2539-2.4375-1.5312-3.7773l-1.0391-6.3203c-0.13672-0.51172-0.60156-0.85938-1.125-0.84375h-7.6797c-0.48047 0.035156-0.88281 0.375-1 0.83984l-1.1602 6.2812c-1.3477 6.1719-7.4414 10.086-13.613 8.7422-1.3008-0.28516-2.5391-0.79297-3.6641-1.5l-5.1992-3.7188c-0.38672-0.26953-0.89453-0.26953-1.2812 0l-5.4805 5.5586c-0.26953 0.38281-0.26953 0.89453 0 1.2812l3.7188 5.1992c3.3828 5.3359 1.7969 12.406-3.5391 15.785-1.1602 0.73047-2.4414 1.25-3.7812 1.5312l-6.3203 1.0391c-0.46484 0.11719-0.80469 0.51953-0.83984 1v7.7188c0.035156 0.48047 0.375 0.88281 0.83984 1l6.3203 1.2422c6.1797 1.3086 10.133 7.3789 8.8242 13.562-0.28906 1.3672-0.82422 2.668-1.582 3.8398l-3.7227 5.1992c-0.26953 0.38672-0.26953 0.89453 0 1.2812l5.4805 5.4414c0.38281 0.26953 0.89453 0.26953 1.2812 0l5.1992-3.7227c1.8516-1.1602 4.0156-1.7188 6.1992-1.6016zm17.16-8c-12.148 0-22-9.8516-22-22s9.8516-22 22-22 22 9.8516 22 22c-0.019531 12.141-9.8594 21.98-22 22zm0-40c-9.9414 0-18 8.0586-18 18s8.0586 18 18 18 18-8.0586 18-18-8.0586-18-18-18z"/>
</svg>
